<svg xmlns="http://www.w3.org/2000/svg" width="59" height="59" viewBox="0 0 59 59">
    <g fill="none" fill-rule="evenodd">
        <g fill="#AAA" fill-rule="nonzero">
            <g>
                <path d="M40.076 29.153h-7.142c-.364-1.399-1.459-2.494-2.858-2.858V16.153c0-.553-.448-1-1-1s-1 .447-1 1v10.142c-1.72.447-3 1.999-3 3.858 0 2.206 1.794 4 4 4 1.858 0 3.411-1.28 3.858-3h7.142c.552 0 1-.447 1-1 0-.553-.447-1-1-1zm-11 3c-1.103 0-2-.897-2-2s.897-2 2-2 2 .897 2 2-.897 2-2 2z"/>
                <path d="M50.188 9.764l4.096 4.096c.188.188.442.293.707.293.265 0 .52-.105.707-.293 3.167-3.166 3.167-8.319 0-11.485-3.167-3.166-8.319-3.166-11.485 0-.188.188-.293.441-.293.707 0 .266.105.52.293.707l4.561 4.561-1.699 1.699c-4.78-4.284-11.089-6.896-17.998-6.896-6.909 0-13.218 2.612-17.998 6.896l-1.7-1.699 4.561-4.561c.188-.188.293-.441.293-.707 0-.266-.105-.52-.293-.707-3.166-3.166-8.318-3.166-11.485 0s-3.167 8.319 0 11.485c.188.188.442.293.707.293.265 0 .52-.105.707-.293l4.096-4.096 1.676 1.676c-4.679 4.857-7.565 11.453-7.565 18.713 0 9.898 5.357 18.564 13.321 23.265l-3.028 3.028c-.391.391-.391 1.023 0 1.414.195.195.451.293.707.293.256 0 .512-.098.707-.293l3.45-3.45c3.578 1.754 7.597 2.743 11.843 2.743 4.246 0 8.265-.989 11.843-2.743l3.45 3.45c.195.195.451.293.707.293.256 0 .512-.098.707-.293.391-.391.391-1.023 0-1.414l-3.028-3.028c7.964-4.701 13.321-13.367 13.321-23.265 0-7.26-2.886-13.856-7.565-18.713l1.677-1.676zm4.095-5.975c2.146 2.146 2.362 5.502.649 7.893L46.391 3.14c2.39-1.713 5.745-1.498 7.892.649zM3.22 11.681c-1.713-2.39-1.497-5.746.649-7.892s5.502-2.361 7.892-.649L3.22 11.681zm25.856 43.472c-13.785 0-25-11.215-25-25s11.215-25 25-25 25 11.215 25 25-11.214 25-25 25z"/>
                <path d="M29.076 10.032c.552 0 1-.447 1-1v-1c0-.553-.448-1-1-1s-1 .447-1 1v1c0 .552.448 1 1 1zM29.076 50.032c-.552 0-1 .447-1 1v1c0 .553.448 1 1 1s1-.447 1-1v-1c0-.553-.447-1-1-1zM50.076 31.032h1c.552 0 1-.447 1-1 0-.553-.448-1-1-1h-1c-.552 0-1 .447-1 1 0 .553.448 1 1 1zM8.076 29.032h-1c-.552 0-1 .447-1 1 0 .553.448 1 1 1h1c.552 0 1-.447 1-1 0-.553-.447-1-1-1zM43.926 13.768l-.707.707c-.391.391-.391 1.023 0 1.414.195.195.451.293.707.293.256 0 .512-.098.707-.293l.707-.707c.391-.391.391-1.023 0-1.414s-1.024-.391-1.414 0zM13.52 44.174l-.707.707c-.391.391-.391 1.023 0 1.414.195.195.451.293.707.293.256 0 .512-.098.707-.293l.707-.707c.391-.391.391-1.023 0-1.414s-1.023-.39-1.414 0zM44.633 44.174c-.391-.391-1.023-.391-1.414 0s-.391 1.023 0 1.414l.707.707c.195.195.451.293.707.293.256 0 .512-.098.707-.293.391-.391.391-1.023 0-1.414l-.707-.707zM14.227 13.768c-.391-.391-1.023-.391-1.414 0s-.391 1.023 0 1.414l.707.707c.195.195.451.293.707.293.256 0 .512-.098.707-.293.391-.391.391-1.023 0-1.414l-.707-.707z"/>
            </g>
        </g>
    </g>
</svg>
