<svg xmlns="http://www.w3.org/2000/svg" xmlns:xlink="http://www.w3.org/1999/xlink" width="35" height="31" viewBox="0 0 35 31">
    <defs>
        <path id="kt18w8k7sa" d="M0 0L35 0 35 31 0 31z"/>
    </defs>
    <g fill="none" fill-rule="evenodd">
        <g>
            <g>
                <g>
                    <g>
                        <g transform="translate(-50 -932) translate(0 871) translate(50 55) translate(0 6)">
                            <mask id="9vbogt6kxb" fill="#fff">
                                <use xlink:href="#kt18w8k7sa"/>
                            </mask>
                            <path fill="#0B2031" d="M17.499 6L5.02 17.573c0 .016-.003.041-.01.073-.007.033-.011.056-.011.073v11.718c0 .423.137.79.412 1.098.275.31.6.465.976.465h8.334v-9.375h5.556V31h8.333c.376 0 .701-.155.975-.464.276-.308.414-.676.414-1.099V17.72c0-.065-.008-.114-.022-.146L17.498 6z" mask="url(#9vbogt6kxb)"/>
                            <path fill="#0B2031" d="M34.758 14.899l-4.754-4.339V.834c0-.223-.065-.405-.195-.548-.13-.143-.297-.214-.5-.214h-4.167c-.203 0-.37.071-.5.214-.13.143-.195.325-.195.548v4.649L19.15.62C18.687.207 18.137 0 17.5 0s-1.186.207-1.65.62L.24 14.9c-.144.127-.223.297-.238.511-.014.215.037.402.153.562L1.5 17.734c.116.143.268.232.455.263.175.016.349-.04.522-.167L17.5 4.076 32.523 17.83c.115.112.268.167.455.167h.066c.188-.031.339-.12.456-.263l1.346-1.764c.115-.158.167-.345.151-.56-.014-.214-.095-.384-.24-.511z" mask="url(#9vbogt6kxb)"/>
                        </g>
                    </g>
                </g>
            </g>
        </g>
    </g>
</svg>
