<svg xmlns="http://www.w3.org/2000/svg" width="46" height="45" viewBox="0 0 46 45">
    <g fill="none" fill-rule="evenodd">
        <g fill="#FFF" fill-rule="nonzero">
            <g>
                <g>
                    <g>
                        <g>
                            <path d="M32.792 0l-1.377 3.471c5.537 2.126 9.707 6.952 10.826 12.841L46 15.617C44.623 8.457 39.563 2.568 32.792 0z" transform="translate(-167 -905) translate(0 871) translate(158 27) translate(9 7)"/>
                            <path d="M30.832 5.063l-5.588 14.062 15.146-2.801c-.992-5.076-4.633-9.385-9.558-11.262zm2.827 10.253c-1.806 0-3.272-1.442-3.272-3.2 0-1.756 1.475-3.198 3.272-3.198 1.805 0 3.27 1.442 3.27 3.199s-1.502 3.199-3.27 3.199z" transform="translate(-167 -905) translate(0 871) translate(158 27) translate(9 7)"/>
                            <path d="M41.744 20.307l-2.795.504c.217 1.13.33 2.251.33 3.381 0 9.956-8.184 18.016-18.209 18.016S2.823 34.11 2.823 24.192c0-9.918 8.193-18.015 18.21-18.015 2.274 0 4.512.401 6.607 1.233l1.03-2.615c-2.39-.906-4.957-1.42-7.638-1.42C9.431 3.385 0 12.686 0 24.192S9.43 45 21.032 45s21.033-9.33 21.033-20.808c.047-1.345-.104-2.615-.321-3.885z" transform="translate(-167 -905) translate(0 871) translate(158 27) translate(9 7)"/>
                            <path d="M36.764 21.151L20.78 24.188 26.62 9.12s-2.31-1.245-5.878-1.245c-8.95 0-16.255 7.336-16.255 16.322 0 8.986 7.306 16.303 16.246 16.303 8.94 0 16.255-7.336 16.255-16.322.15-.952-.225-3.027-.225-3.027zm-22.378-8.995c.544-.217 1.098-.368 1.643-.443.507-.076.986.292 1.061.773.075.51-.291.99-.77 1.065-.404.076-.836.18-1.202.33-.62.264-1.061-.15-1.202-.509-.225-.48-.01-1.037.47-1.216zm-2.92 3.81c.44-.038.872.112 1.201.367.404.292.479.877.179 1.32-.179.255-.658.575-1.278.18-.507.037-.948-.369-.986-.878-.037-.509.367-.952.883-.99zM8.393 26.638c-.403-.292-.507-.877-.178-1.32.291-.405.873-.51 1.315-.18l1.098.812c.404.292.507.877.179 1.32-.179.254-.676.584-1.277.179l-1.137-.81zm2.958 7.741c-.178.18-.807.49-1.314 0l-.442-.443c-.366-.367-.366-.952 0-1.32.367-.368.949-.368 1.315 0l.441.443c.367.359.367.953 0 1.32zm-.366-12.323c0-1.537 1.24-2.792 2.78-2.792 1.54 0 2.78 1.245 2.78 2.792 0 1.546-1.24 2.79-2.78 2.79-1.54 0-2.78-1.254-2.78-2.79zm3.437 9.09c-.178.178-.798.499-1.315-.038l-.694-.698c-.367-.368-.367-.953 0-1.32.366-.368.948-.368 1.314 0l.695.697c.366.406.366.99 0 1.358zm4.602 6.562c-.15.405-.526.735-1.165.585l-1.53-.51c-.48-.15-.733-.697-.583-1.169.15-.48.695-.735 1.165-.584l1.53.509c.47.15.723.66.583 1.169zm1.126-9.458c-.178.293-.61.66-1.24.368-.506-.292-.985-.66-1.389-1.14-.329-.406-.291-.99.075-1.32.404-.33.986-.293 1.315.075.253.292.545.547.873.735.442.292.62.84.366 1.282zm-.037-9.862c-.17.113-.695.509-1.315-.114-.404-.405-.657-.877-.91-1.395-.217-.481-.038-1.028.44-1.245.48-.217 1.024-.037 1.24.443.179.368.404.698.658.99.328.406.253.99-.113 1.32zm.263-7.006c-.075-.51.253-.99.77-1.066.657-.113 1.352.151 1.793.66.33.406.292.99-.112 1.32-.751.575-1.39-.15-1.39-.15-.517.122-.995-.246-1.061-.764zm3.287 24.714c-1.569 0-2.846-1.283-2.846-2.857 0-1.575 1.277-2.858 2.846-2.858 1.568 0 2.845 1.283 2.845 2.858 0 1.574-1.277 2.857-2.845 2.857zm4.01-7.035c-.489.123-.808-.113-.987-.367-.366-.151-.582-.51-.582-.915.038-.51.48-.915.986-.877.62.038 1.136.481 1.277 1.066.113.471-.216.943-.695 1.093zm5.587.698l-.442.698c-.44.66-1.136.405-1.277.292-.441-.254-.582-.839-.29-1.282l.44-.698c.254-.443.836-.585 1.278-.292.441.254.582.839.29 1.282zm.366-5.176c-.113.443-.479.697-.91.697-.076 0-.151 0-.217-.037-.253-.076-.479-.076-.732-.076-.507.076-.949-.292-.986-.81-.038-.51.328-.953.835-.99.442-.039.874 0 1.315.112.517.113.845.632.695 1.104z" transform="translate(-167 -905) translate(0 871) translate(158 27) translate(9 7)"/>
                        </g>
                    </g>
                </g>
            </g>
        </g>
    </g>
</svg>
